<svg xmlns="http://www.w3.org/2000/svg" xmlns:xlink="http://www.w3.org/1999/xlink" width="500" zoomAndPan="magnify" viewBox="0 0 375 374.999991" height="500" preserveAspectRatio="xMidYMid meet" version="1.0"><defs><g/><clipPath id="d81774a71d"><path d="M 70.625 158.292969 L 93 158.292969 L 93 203.277344 L 70.625 203.277344 Z M 70.625 158.292969 " clip-rule="nonzero"/></clipPath><clipPath id="f775e2431a"><path d="M 112 158.292969 L 134.375 158.292969 L 134.375 203.277344 L 112 203.277344 Z M 112 158.292969 " clip-rule="nonzero"/></clipPath></defs><rect x="-37.5" width="450" fill="#ffffff" y="-37.499999" height="449.999989" fill-opacity="1"/><rect x="-37.5" width="450" fill="#ffffff" y="-37.499999" height="449.999989" fill-opacity="1"/><rect x="-37.5" width="450" fill="#212529" y="-37.499999" height="449.999989" fill-opacity="1"/><g fill="#b4914c" fill-opacity="1"><g transform="translate(146.86492, 217.949971)"><g><path d="M 2.515625 -5.625 C 3.179688 -5.625 3.769531 -5.453125 4.28125 -5.109375 L 4.015625 -4.5 C 3.546875 -4.8125 3.03125 -4.96875 2.46875 -4.96875 C 2.101562 -4.96875 1.8125 -4.898438 1.59375 -4.765625 C 1.382812 -4.640625 1.28125 -4.460938 1.28125 -4.234375 C 1.28125 -4.003906 1.359375 -3.816406 1.515625 -3.671875 C 1.671875 -3.523438 1.863281 -3.414062 2.09375 -3.34375 C 2.332031 -3.269531 2.585938 -3.1875 2.859375 -3.09375 C 3.128906 -3 3.378906 -2.898438 3.609375 -2.796875 C 3.835938 -2.691406 4.03125 -2.53125 4.1875 -2.3125 C 4.34375 -2.09375 4.421875 -1.828125 4.421875 -1.515625 C 4.421875 -1.046875 4.234375 -0.671875 3.859375 -0.390625 C 3.484375 -0.109375 3 0.03125 2.40625 0.03125 C 2 0.03125 1.601562 -0.046875 1.21875 -0.203125 C 0.84375 -0.359375 0.519531 -0.566406 0.25 -0.828125 L 0.546875 -1.40625 C 0.796875 -1.15625 1.085938 -0.957031 1.421875 -0.8125 C 1.753906 -0.675781 2.082031 -0.609375 2.40625 -0.609375 C 2.8125 -0.609375 3.128906 -0.6875 3.359375 -0.84375 C 3.597656 -1 3.71875 -1.210938 3.71875 -1.484375 C 3.71875 -1.679688 3.660156 -1.847656 3.546875 -1.984375 C 3.429688 -2.117188 3.28125 -2.222656 3.09375 -2.296875 C 2.914062 -2.378906 2.710938 -2.453125 2.484375 -2.515625 C 2.265625 -2.585938 2.039062 -2.660156 1.8125 -2.734375 C 1.59375 -2.816406 1.390625 -2.910156 1.203125 -3.015625 C 1.015625 -3.128906 0.863281 -3.28125 0.75 -3.46875 C 0.632812 -3.664062 0.578125 -3.898438 0.578125 -4.171875 C 0.578125 -4.609375 0.753906 -4.957031 1.109375 -5.21875 C 1.460938 -5.488281 1.929688 -5.625 2.515625 -5.625 Z M 2.515625 -5.625 "/></g></g></g><g fill="#b4914c" fill-opacity="1"><g transform="translate(152.684194, 217.949971)"><g><path d="M 1.484375 0 L 0.84375 0 L 0.84375 -5.59375 L 1.484375 -5.59375 Z M 1.484375 0 "/></g></g></g><g fill="#b4914c" fill-opacity="1"><g transform="translate(155.953942, 217.949971)"><g><path d="M 5.5 0 L 4.84375 0 L 1.484375 -4.5 L 1.484375 0 L 0.84375 0 L 0.84375 -5.59375 L 1.515625 -5.59375 L 4.875 -1.09375 L 4.875 -5.59375 L 5.5 -5.59375 Z M 5.5 0 "/></g></g></g><g fill="#b4914c" fill-opacity="1"><g transform="translate(163.243792, 217.949971)"><g><path d="M 3.234375 -5.609375 C 3.617188 -5.609375 3.988281 -5.535156 4.34375 -5.390625 C 4.695312 -5.253906 5.007812 -5.054688 5.28125 -4.796875 L 4.90625 -4.3125 C 4.445312 -4.78125 3.894531 -5.015625 3.25 -5.015625 C 2.613281 -5.015625 2.070312 -4.800781 1.625 -4.375 C 1.1875 -3.945312 0.96875 -3.425781 0.96875 -2.8125 C 0.96875 -2.195312 1.1875 -1.671875 1.625 -1.234375 C 2.070312 -0.804688 2.609375 -0.59375 3.234375 -0.59375 C 3.867188 -0.59375 4.425781 -0.816406 4.90625 -1.265625 L 5.296875 -0.828125 C 4.679688 -0.253906 3.988281 0.03125 3.21875 0.03125 C 2.414062 0.03125 1.726562 -0.238281 1.15625 -0.78125 C 0.59375 -1.332031 0.3125 -2.007812 0.3125 -2.8125 C 0.3125 -3.59375 0.597656 -4.253906 1.171875 -4.796875 C 1.742188 -5.335938 2.429688 -5.609375 3.234375 -5.609375 Z M 3.234375 -5.609375 "/></g></g></g><g fill="#b4914c" fill-opacity="1"><g transform="translate(169.774386, 217.949971)"><g><path d="M 4.640625 -4.984375 L 1.484375 -4.984375 L 1.484375 -3.140625 L 4.3125 -3.140625 L 4.3125 -2.53125 L 1.484375 -2.53125 L 1.484375 -0.609375 L 4.75 -0.609375 L 4.75 0 L 0.84375 0 L 0.84375 -5.59375 L 4.640625 -5.59375 Z M 4.640625 -4.984375 "/></g></g></g><g fill="#b4914c" fill-opacity="1"><g transform="translate(175.913351, 217.949971)"><g/></g></g><g fill="#b4914c" fill-opacity="1"><g transform="translate(179.039236, 217.949971)"><g><path d="M 1.90625 0 L 1.265625 0 L 1.265625 -4.984375 L 0.140625 -4.984375 L 0.140625 -5.59375 L 1.90625 -5.59375 Z M 1.90625 0 "/></g></g></g><g fill="#b4914c" fill-opacity="1"><g transform="translate(182.940366, 217.949971)"><g><path d="M 2.171875 0.03125 C 1.617188 0.03125 1.085938 -0.101562 0.578125 -0.375 L 0.84375 -0.890625 C 1.226562 -0.660156 1.65625 -0.546875 2.125 -0.546875 C 2.71875 -0.546875 3.160156 -0.769531 3.453125 -1.21875 C 3.753906 -1.664062 3.882812 -2.273438 3.84375 -3.046875 C 3.71875 -2.710938 3.507812 -2.457031 3.21875 -2.28125 C 2.925781 -2.101562 2.578125 -2.015625 2.171875 -2.015625 C 1.617188 -2.015625 1.179688 -2.171875 0.859375 -2.484375 C 0.546875 -2.804688 0.390625 -3.238281 0.390625 -3.78125 C 0.390625 -4.34375 0.5625 -4.789062 0.90625 -5.125 C 1.25 -5.457031 1.707031 -5.625 2.28125 -5.625 C 2.96875 -5.625 3.503906 -5.382812 3.890625 -4.90625 C 4.273438 -4.4375 4.46875 -3.773438 4.46875 -2.921875 C 4.46875 -2.023438 4.257812 -1.304688 3.84375 -0.765625 C 3.4375 -0.234375 2.878906 0.03125 2.171875 0.03125 Z M 2.28125 -2.5625 C 2.707031 -2.5625 3.050781 -2.679688 3.3125 -2.921875 C 3.570312 -3.171875 3.703125 -3.46875 3.703125 -3.8125 C 3.703125 -4.125 3.582031 -4.40625 3.34375 -4.65625 C 3.101562 -4.914062 2.765625 -5.046875 2.328125 -5.046875 C 1.929688 -5.046875 1.609375 -4.929688 1.359375 -4.703125 C 1.109375 -4.472656 0.984375 -4.160156 0.984375 -3.765625 C 0.984375 -3.390625 1.097656 -3.09375 1.328125 -2.875 C 1.566406 -2.664062 1.882812 -2.5625 2.28125 -2.5625 Z M 2.28125 -2.5625 "/></g></g></g><g fill="#b4914c" fill-opacity="1"><g transform="translate(188.703702, 217.949971)"><g><path d="M 2.734375 -5.625 C 3.273438 -5.625 3.800781 -5.488281 4.3125 -5.21875 L 4.0625 -4.71875 C 3.664062 -4.945312 3.234375 -5.0625 2.765625 -5.0625 C 2.171875 -5.0625 1.722656 -4.835938 1.421875 -4.390625 C 1.128906 -3.941406 1.007812 -3.332031 1.0625 -2.5625 C 1.175781 -2.894531 1.378906 -3.144531 1.671875 -3.3125 C 1.960938 -3.488281 2.316406 -3.578125 2.734375 -3.578125 C 3.273438 -3.578125 3.703125 -3.414062 4.015625 -3.09375 C 4.335938 -2.78125 4.5 -2.359375 4.5 -1.828125 C 4.5 -1.253906 4.328125 -0.800781 3.984375 -0.46875 C 3.640625 -0.132812 3.179688 0.03125 2.609375 0.03125 C 1.921875 0.03125 1.382812 -0.203125 1 -0.671875 C 0.613281 -1.148438 0.421875 -1.820312 0.421875 -2.6875 C 0.421875 -3.570312 0.625 -4.28125 1.03125 -4.8125 C 1.445312 -5.351562 2.015625 -5.625 2.734375 -5.625 Z M 2.609375 -3.046875 C 2.179688 -3.046875 1.835938 -2.921875 1.578125 -2.671875 C 1.328125 -2.421875 1.203125 -2.125 1.203125 -1.78125 C 1.203125 -1.46875 1.316406 -1.1875 1.546875 -0.9375 C 1.785156 -0.6875 2.125 -0.5625 2.5625 -0.5625 C 2.96875 -0.5625 3.289062 -0.675781 3.53125 -0.90625 C 3.78125 -1.132812 3.90625 -1.441406 3.90625 -1.828125 C 3.90625 -2.203125 3.785156 -2.5 3.546875 -2.71875 C 3.316406 -2.9375 3.003906 -3.046875 2.609375 -3.046875 Z M 2.609375 -3.046875 "/></g></g></g><g fill="#b4914c" fill-opacity="1"><g transform="translate(194.467038, 217.949971)"><g><path d="M 2.46875 -5.625 C 3.019531 -5.625 3.457031 -5.5 3.78125 -5.25 C 4.101562 -5 4.265625 -4.65625 4.265625 -4.21875 C 4.265625 -3.644531 3.960938 -3.234375 3.359375 -2.984375 C 3.722656 -2.878906 4.007812 -2.703125 4.21875 -2.453125 C 4.425781 -2.210938 4.53125 -1.914062 4.53125 -1.5625 C 4.53125 -1.070312 4.34375 -0.679688 3.96875 -0.390625 C 3.601562 -0.109375 3.101562 0.03125 2.46875 0.03125 C 1.832031 0.03125 1.328125 -0.109375 0.953125 -0.390625 C 0.585938 -0.671875 0.40625 -1.054688 0.40625 -1.546875 C 0.40625 -1.898438 0.507812 -2.203125 0.71875 -2.453125 C 0.9375 -2.703125 1.234375 -2.878906 1.609375 -2.984375 C 1.304688 -3.109375 1.070312 -3.273438 0.90625 -3.484375 C 0.75 -3.703125 0.671875 -3.953125 0.671875 -4.234375 C 0.671875 -4.660156 0.832031 -5 1.15625 -5.25 C 1.476562 -5.5 1.914062 -5.625 2.46875 -5.625 Z M 2.46875 -5.125 C 2.070312 -5.125 1.765625 -5.039062 1.546875 -4.875 C 1.328125 -4.707031 1.21875 -4.472656 1.21875 -4.171875 C 1.21875 -3.878906 1.328125 -3.644531 1.546875 -3.46875 C 1.765625 -3.300781 2.070312 -3.21875 2.46875 -3.21875 C 2.863281 -3.21875 3.171875 -3.300781 3.390625 -3.46875 C 3.609375 -3.644531 3.71875 -3.878906 3.71875 -4.171875 C 3.71875 -4.472656 3.609375 -4.707031 3.390625 -4.875 C 3.171875 -5.039062 2.863281 -5.125 2.46875 -5.125 Z M 2.46875 -2.6875 C 2.007812 -2.6875 1.648438 -2.59375 1.390625 -2.40625 C 1.140625 -2.21875 1.015625 -1.957031 1.015625 -1.625 C 1.015625 -1.269531 1.140625 -0.992188 1.390625 -0.796875 C 1.648438 -0.609375 2.007812 -0.515625 2.46875 -0.515625 C 2.925781 -0.515625 3.28125 -0.609375 3.53125 -0.796875 C 3.789062 -0.992188 3.921875 -1.269531 3.921875 -1.625 C 3.921875 -1.957031 3.789062 -2.21875 3.53125 -2.40625 C 3.28125 -2.59375 2.925781 -2.6875 2.46875 -2.6875 Z M 2.46875 -2.6875 "/></g></g></g><g fill="#ffffff" fill-opacity="1"><g transform="translate(146.86492, 177.049983)"><g><path d="M 11.328125 -16.53125 L 11.328125 -14.515625 L 11.09375 -14.515625 L 11.09375 -14.875 C 11.09375 -15.195312 10.976562 -15.472656 10.75 -15.703125 C 10.53125 -15.941406 10.25 -16.0625 9.90625 -16.0625 L 4.84375 -16.0625 L 4.84375 -8.640625 L 8.90625 -8.640625 C 9.226562 -8.648438 9.5 -8.769531 9.71875 -9 C 9.945312 -9.226562 10.0625 -9.5 10.0625 -9.8125 L 10.0625 -10.171875 L 10.296875 -10.171875 L 10.296875 -6.390625 L 10.0625 -6.390625 L 10.0625 -6.75 C 10.0625 -7.0625 9.953125 -7.328125 9.734375 -7.546875 C 9.515625 -7.773438 9.242188 -7.898438 8.921875 -7.921875 L 4.84375 -7.921875 L 4.84375 -1.75 C 4.84375 -1.332031 4.992188 -0.972656 5.296875 -0.671875 C 5.609375 -0.378906 5.972656 -0.234375 6.390625 -0.234375 L 6.703125 -0.234375 L 6.703125 0 L 1.4375 0 L 1.4375 -0.234375 L 1.75 -0.234375 C 2.164062 -0.234375 2.519531 -0.378906 2.8125 -0.671875 C 3.113281 -0.972656 3.269531 -1.332031 3.28125 -1.75 L 3.28125 -15.1875 C 3.28125 -15.570312 3.125 -15.894531 2.8125 -16.15625 C 2.507812 -16.425781 2.15625 -16.5625 1.75 -16.5625 L 1.46875 -16.5625 L 1.4375 -16.796875 L 8.46875 -16.796875 C 8.96875 -16.796875 9.507812 -16.84375 10.09375 -16.9375 C 10.675781 -17.039062 11.085938 -17.140625 11.328125 -17.234375 Z M 11.328125 -16.53125 "/></g></g></g><g fill="#ffffff" fill-opacity="1"><g transform="translate(159.848951, 177.049983)"><g><path d="M 17.1875 -0.234375 L 17.390625 -0.234375 L 17.390625 0 L 11.984375 0 L 11.984375 -0.234375 L 12.203125 -0.234375 C 12.535156 -0.234375 12.785156 -0.34375 12.953125 -0.5625 C 13.117188 -0.78125 13.203125 -0.984375 13.203125 -1.171875 C 13.203125 -1.367188 13.171875 -1.5625 13.109375 -1.75 L 11.578125 -5.828125 L 5.09375 -5.828125 L 3.484375 -1.734375 C 3.421875 -1.535156 3.390625 -1.34375 3.390625 -1.15625 C 3.390625 -0.976562 3.472656 -0.78125 3.640625 -0.5625 C 3.804688 -0.34375 4.0625 -0.234375 4.40625 -0.234375 L 4.609375 -0.234375 L 4.609375 0 L -0.203125 0 L -0.203125 -0.234375 L 0 -0.234375 C 0.40625 -0.234375 0.800781 -0.363281 1.1875 -0.625 C 1.570312 -0.882812 1.882812 -1.257812 2.125 -1.75 L 7.546875 -14.65625 C 8.140625 -15.957031 8.4375 -16.785156 8.4375 -17.140625 L 8.640625 -17.140625 L 15.078125 -1.75 C 15.304688 -1.257812 15.609375 -0.882812 15.984375 -0.625 C 16.367188 -0.363281 16.769531 -0.234375 17.1875 -0.234375 Z M 5.390625 -6.546875 L 11.28125 -6.546875 L 8.40625 -14.25 Z M 5.390625 -6.546875 "/></g></g></g><g fill="#ffffff" fill-opacity="1"><g transform="translate(176.936981, 177.049983)"><g><path d="M 6.390625 -16.0625 L 4.84375 -16.0625 L 4.84375 -1.75 C 4.84375 -1.332031 4.988281 -0.972656 5.28125 -0.671875 C 5.582031 -0.378906 5.953125 -0.234375 6.390625 -0.234375 L 6.671875 -0.234375 L 6.703125 0 L 1.4375 0 L 1.4375 -0.234375 L 1.75 -0.234375 C 2.164062 -0.234375 2.519531 -0.378906 2.8125 -0.671875 C 3.113281 -0.960938 3.269531 -1.316406 3.28125 -1.734375 L 3.28125 -15.046875 C 3.269531 -15.460938 3.113281 -15.816406 2.8125 -16.109375 C 2.519531 -16.410156 2.164062 -16.5625 1.75 -16.5625 L 1.4375 -16.5625 L 1.4375 -16.796875 L 7.921875 -16.796875 C 9.378906 -16.796875 10.519531 -16.390625 11.34375 -15.578125 C 12.175781 -14.773438 12.59375 -13.726562 12.59375 -12.4375 C 12.59375 -11.15625 12.195312 -10.046875 11.40625 -9.109375 C 10.613281 -8.171875 9.648438 -7.703125 8.515625 -7.703125 C 8.753906 -7.585938 9.035156 -7.363281 9.359375 -7.03125 C 9.691406 -6.707031 9.988281 -6.375 10.25 -6.03125 C 11.625 -4.0625 12.519531 -2.847656 12.9375 -2.390625 C 13.351562 -1.929688 13.648438 -1.617188 13.828125 -1.453125 C 14.003906 -1.285156 14.195312 -1.117188 14.40625 -0.953125 C 14.613281 -0.796875 14.820312 -0.671875 15.03125 -0.578125 C 15.488281 -0.347656 15.984375 -0.234375 16.515625 -0.234375 L 16.515625 0 L 15.1875 0 C 14.5 0 13.859375 -0.125 13.265625 -0.375 C 12.679688 -0.625 12.238281 -0.878906 11.9375 -1.140625 C 11.644531 -1.398438 11.390625 -1.65625 11.171875 -1.90625 C 10.953125 -2.15625 10.351562 -2.984375 9.375 -4.390625 C 8.40625 -5.796875 7.835938 -6.597656 7.671875 -6.796875 C 7.515625 -7.003906 7.347656 -7.203125 7.171875 -7.390625 C 6.660156 -7.929688 6.148438 -8.203125 5.640625 -8.203125 L 5.640625 -8.453125 C 5.765625 -8.429688 5.929688 -8.421875 6.140625 -8.421875 C 6.347656 -8.421875 6.601562 -8.429688 6.90625 -8.453125 C 8.894531 -8.492188 10.144531 -9.320312 10.65625 -10.9375 C 10.75 -11.257812 10.796875 -11.5625 10.796875 -11.84375 C 10.796875 -12.125 10.796875 -12.304688 10.796875 -12.390625 C 10.765625 -13.453125 10.484375 -14.3125 9.953125 -14.96875 C 9.429688 -15.625 8.722656 -15.976562 7.828125 -16.03125 C 7.441406 -16.050781 6.960938 -16.0625 6.390625 -16.0625 Z M 6.390625 -16.0625 "/></g></g></g><g fill="#ffffff" fill-opacity="1"><g transform="translate(193.185016, 177.049983)"><g><path d="M 17.1875 -0.234375 L 17.390625 -0.234375 L 17.390625 0 L 11.984375 0 L 11.984375 -0.234375 L 12.203125 -0.234375 C 12.535156 -0.234375 12.785156 -0.34375 12.953125 -0.5625 C 13.117188 -0.78125 13.203125 -0.984375 13.203125 -1.171875 C 13.203125 -1.367188 13.171875 -1.5625 13.109375 -1.75 L 11.578125 -5.828125 L 5.09375 -5.828125 L 3.484375 -1.734375 C 3.421875 -1.535156 3.390625 -1.34375 3.390625 -1.15625 C 3.390625 -0.976562 3.472656 -0.78125 3.640625 -0.5625 C 3.804688 -0.34375 4.0625 -0.234375 4.40625 -0.234375 L 4.609375 -0.234375 L 4.609375 0 L -0.203125 0 L -0.203125 -0.234375 L 0 -0.234375 C 0.40625 -0.234375 0.800781 -0.363281 1.1875 -0.625 C 1.570312 -0.882812 1.882812 -1.257812 2.125 -1.75 L 7.546875 -14.65625 C 8.140625 -15.957031 8.4375 -16.785156 8.4375 -17.140625 L 8.640625 -17.140625 L 15.078125 -1.75 C 15.304688 -1.257812 15.609375 -0.882812 15.984375 -0.625 C 16.367188 -0.363281 16.769531 -0.234375 17.1875 -0.234375 Z M 5.390625 -6.546875 L 11.28125 -6.546875 L 8.40625 -14.25 Z M 5.390625 -6.546875 "/></g></g></g><g fill="#ffffff" fill-opacity="1"><g transform="translate(210.273046, 177.049983)"><g><path d="M 9.578125 -16.796875 C 12.140625 -16.796875 14.210938 -16.023438 15.796875 -14.484375 C 17.390625 -12.941406 18.1875 -10.910156 18.1875 -8.390625 C 18.1875 -5.878906 17.390625 -3.851562 15.796875 -2.3125 C 14.210938 -0.769531 12.140625 0 9.578125 0 L 1.4375 0 L 1.4375 -0.234375 L 1.75 -0.234375 C 2.164062 -0.234375 2.519531 -0.378906 2.8125 -0.671875 C 3.113281 -0.972656 3.269531 -1.332031 3.28125 -1.75 L 3.28125 -15.1875 C 3.28125 -15.570312 3.125 -15.894531 2.8125 -16.15625 C 2.507812 -16.425781 2.15625 -16.5625 1.75 -16.5625 L 1.46875 -16.5625 L 1.4375 -16.796875 Z M 4.84375 -16.078125 L 4.84375 -0.71875 L 9.578125 -0.71875 C 10.921875 -0.71875 12.109375 -1.035156 13.140625 -1.671875 C 14.171875 -2.316406 14.96875 -3.21875 15.53125 -4.375 C 16.101562 -5.539062 16.390625 -6.882812 16.390625 -8.40625 C 16.390625 -10.707031 15.757812 -12.5625 14.5 -13.96875 C 13.25 -15.375 11.609375 -16.078125 9.578125 -16.078125 Z M 4.84375 -16.078125 "/></g></g></g><g fill="#ffffff" fill-opacity="1"><g transform="translate(229.641083, 177.049983)"><g><path d="M 17.1875 -0.234375 L 17.390625 -0.234375 L 17.390625 0 L 11.984375 0 L 11.984375 -0.234375 L 12.203125 -0.234375 C 12.535156 -0.234375 12.785156 -0.34375 12.953125 -0.5625 C 13.117188 -0.78125 13.203125 -0.984375 13.203125 -1.171875 C 13.203125 -1.367188 13.171875 -1.5625 13.109375 -1.75 L 11.578125 -5.828125 L 5.09375 -5.828125 L 3.484375 -1.734375 C 3.421875 -1.535156 3.390625 -1.34375 3.390625 -1.15625 C 3.390625 -0.976562 3.472656 -0.78125 3.640625 -0.5625 C 3.804688 -0.34375 4.0625 -0.234375 4.40625 -0.234375 L 4.609375 -0.234375 L 4.609375 0 L -0.203125 0 L -0.203125 -0.234375 L 0 -0.234375 C 0.40625 -0.234375 0.800781 -0.363281 1.1875 -0.625 C 1.570312 -0.882812 1.882812 -1.257812 2.125 -1.75 L 7.546875 -14.65625 C 8.140625 -15.957031 8.4375 -16.785156 8.4375 -17.140625 L 8.640625 -17.140625 L 15.078125 -1.75 C 15.304688 -1.257812 15.609375 -0.882812 15.984375 -0.625 C 16.367188 -0.363281 16.769531 -0.234375 17.1875 -0.234375 Z M 5.390625 -6.546875 L 11.28125 -6.546875 L 8.40625 -14.25 Z M 5.390625 -6.546875 "/></g></g></g><g fill="#ffffff" fill-opacity="1"><g transform="translate(246.729113, 177.049983)"><g><path d="M 16.15625 -16.5625 L 15.828125 -16.5625 C 15.347656 -16.5625 14.894531 -16.425781 14.46875 -16.15625 C 14.039062 -15.894531 13.6875 -15.566406 13.40625 -15.171875 L 8.671875 -7.484375 L 8.671875 -1.75 C 8.671875 -1.332031 8.816406 -0.972656 9.109375 -0.671875 C 9.410156 -0.378906 9.773438 -0.234375 10.203125 -0.234375 L 10.5 -0.234375 L 10.5 0 L 5.265625 0 L 5.265625 -0.234375 L 5.578125 -0.234375 C 5.992188 -0.234375 6.347656 -0.378906 6.640625 -0.671875 C 6.941406 -0.960938 7.097656 -1.316406 7.109375 -1.734375 L 7.109375 -7.515625 L 2.53125 -15.171875 C 2.289062 -15.554688 1.945312 -15.882812 1.5 -16.15625 C 1.0625 -16.425781 0.601562 -16.5625 0.125 -16.5625 L -0.203125 -16.5625 L -0.203125 -16.796875 L 5.6875 -16.796875 L 5.6875 -16.5625 L 5.390625 -16.5625 C 5.035156 -16.5625 4.757812 -16.398438 4.5625 -16.078125 C 4.46875 -15.898438 4.421875 -15.726562 4.421875 -15.5625 C 4.421875 -15.394531 4.460938 -15.234375 4.546875 -15.078125 L 8.140625 -8.359375 L 11.984375 -15.09375 C 12.066406 -15.257812 12.109375 -15.421875 12.109375 -15.578125 C 12.109375 -15.734375 12.050781 -15.898438 11.9375 -16.078125 C 11.738281 -16.398438 11.46875 -16.5625 11.125 -16.5625 L 10.828125 -16.5625 L 10.828125 -16.796875 L 16.15625 -16.796875 Z M 16.15625 -16.5625 "/></g></g></g><g fill="#ffffff" fill-opacity="1"><g transform="translate(262.593142, 177.049983)"><g/></g></g><g fill="#ffffff" fill-opacity="1"><g transform="translate(268.593153, 177.049983)"><g><path d="M 13.125 -0.234375 C 13.539062 -0.234375 13.894531 -0.378906 14.1875 -0.671875 C 14.488281 -0.960938 14.644531 -1.316406 14.65625 -1.734375 L 14.65625 -7.9375 L 4.84375 -7.9375 L 4.84375 -1.75 C 4.84375 -1.332031 4.992188 -0.972656 5.296875 -0.671875 C 5.609375 -0.378906 5.972656 -0.234375 6.390625 -0.234375 L 6.703125 -0.234375 L 6.703125 0 L 1.4375 0 L 1.4375 -0.234375 L 1.75 -0.234375 C 2.164062 -0.234375 2.519531 -0.378906 2.8125 -0.671875 C 3.113281 -0.972656 3.269531 -1.332031 3.28125 -1.75 L 3.28125 -15.078125 C 3.269531 -15.492188 3.113281 -15.84375 2.8125 -16.125 C 2.519531 -16.414062 2.164062 -16.5625 1.75 -16.5625 L 1.4375 -16.5625 L 1.4375 -16.796875 L 6.703125 -16.796875 L 6.703125 -16.5625 L 6.390625 -16.5625 C 5.972656 -16.5625 5.613281 -16.414062 5.3125 -16.125 C 5.019531 -15.84375 4.863281 -15.492188 4.84375 -15.078125 L 4.84375 -8.65625 L 14.65625 -8.65625 L 14.65625 -15.078125 C 14.644531 -15.648438 14.390625 -16.082031 13.890625 -16.375 C 13.648438 -16.5 13.394531 -16.5625 13.125 -16.5625 L 12.8125 -16.5625 L 12.8125 -16.796875 L 18.078125 -16.796875 L 18.078125 -16.5625 L 17.765625 -16.5625 C 17.347656 -16.5625 16.988281 -16.410156 16.6875 -16.109375 C 16.394531 -15.816406 16.238281 -15.460938 16.21875 -15.046875 L 16.21875 -1.75 C 16.238281 -1.332031 16.394531 -0.972656 16.6875 -0.671875 C 16.988281 -0.378906 17.347656 -0.234375 17.765625 -0.234375 L 18.078125 -0.234375 L 18.078125 0 L 12.8125 0 L 12.8125 -0.234375 Z M 13.125 -0.234375 "/></g></g></g><g fill="#ffffff" fill-opacity="1"><g transform="translate(288.10519, 177.049983)"><g><path d="M 1.75 -0.234375 C 2.164062 -0.234375 2.519531 -0.378906 2.8125 -0.671875 C 3.113281 -0.972656 3.269531 -1.332031 3.28125 -1.75 L 3.28125 -15.078125 C 3.269531 -15.492188 3.113281 -15.84375 2.8125 -16.125 C 2.519531 -16.414062 2.164062 -16.5625 1.75 -16.5625 L 1.4375 -16.5625 L 1.4375 -16.796875 L 6.703125 -16.796875 L 6.703125 -16.5625 L 6.390625 -16.5625 C 5.972656 -16.5625 5.613281 -16.414062 5.3125 -16.125 C 5.019531 -15.84375 4.863281 -15.492188 4.84375 -15.078125 L 4.84375 -1.75 C 4.84375 -1.332031 4.992188 -0.972656 5.296875 -0.671875 C 5.609375 -0.378906 5.972656 -0.234375 6.390625 -0.234375 L 6.703125 -0.234375 L 6.703125 0 L 1.4375 0 L 1.4375 -0.234375 Z M 1.75 -0.234375 "/></g></g></g><g fill="#ffffff" fill-opacity="1"><g transform="translate(296.217208, 177.049983)"><g><path d="M 1.75 -0.234375 C 2.164062 -0.234375 2.519531 -0.378906 2.8125 -0.671875 C 3.113281 -0.972656 3.269531 -1.332031 3.28125 -1.75 L 3.28125 -15.046875 C 3.269531 -15.460938 3.113281 -15.816406 2.8125 -16.109375 C 2.519531 -16.410156 2.164062 -16.5625 1.75 -16.5625 L 1.4375 -16.5625 L 1.4375 -16.796875 L 6.703125 -16.796875 L 6.703125 -16.5625 L 6.390625 -16.5625 C 5.804688 -16.5625 5.363281 -16.3125 5.0625 -15.8125 C 4.914062 -15.570312 4.84375 -15.316406 4.84375 -15.046875 L 4.84375 -0.75 L 8.28125 -0.75 C 9.46875 -0.75 10.367188 -1.007812 10.984375 -1.53125 C 11.609375 -2.0625 12.128906 -2.847656 12.546875 -3.890625 L 12.796875 -3.890625 L 11.40625 0 L 1.4375 0 L 1.4375 -0.234375 Z M 1.75 -0.234375 "/></g></g></g><g fill="#ffffff" fill-opacity="1"><g transform="translate(309.705237, 177.049983)"><g><path d="M 1.75 -0.234375 C 2.164062 -0.234375 2.519531 -0.378906 2.8125 -0.671875 C 3.113281 -0.972656 3.269531 -1.332031 3.28125 -1.75 L 3.28125 -15.046875 C 3.269531 -15.460938 3.113281 -15.816406 2.8125 -16.109375 C 2.519531 -16.410156 2.164062 -16.5625 1.75 -16.5625 L 1.4375 -16.5625 L 1.4375 -16.796875 L 6.703125 -16.796875 L 6.703125 -16.5625 L 6.390625 -16.5625 C 5.804688 -16.5625 5.363281 -16.3125 5.0625 -15.8125 C 4.914062 -15.570312 4.84375 -15.316406 4.84375 -15.046875 L 4.84375 -0.75 L 8.28125 -0.75 C 9.46875 -0.75 10.367188 -1.007812 10.984375 -1.53125 C 11.609375 -2.0625 12.128906 -2.847656 12.546875 -3.890625 L 12.796875 -3.890625 L 11.40625 0 L 1.4375 0 L 1.4375 -0.234375 Z M 1.75 -0.234375 "/></g></g></g><g fill="#ffffff" fill-opacity="1"><g transform="translate(323.193265, 177.049983)"><g><path d="M 1.46875 -0.984375 C 1.414062 -1.203125 1.390625 -1.628906 1.390625 -2.265625 C 1.390625 -2.910156 1.507812 -3.59375 1.75 -4.3125 L 1.96875 -4.3125 C 1.945312 -4.144531 1.9375 -3.972656 1.9375 -3.796875 C 1.9375 -2.816406 2.234375 -2.003906 2.828125 -1.359375 C 3.421875 -0.710938 4.207031 -0.390625 5.1875 -0.390625 C 6.195312 -0.390625 7.023438 -0.691406 7.671875 -1.296875 C 8.316406 -1.898438 8.640625 -2.660156 8.640625 -3.578125 C 8.640625 -4.503906 8.328125 -5.253906 7.703125 -5.828125 L 3.09375 -10.109375 C 2.226562 -10.898438 1.796875 -11.863281 1.796875 -13 C 1.796875 -14.144531 2.175781 -15.117188 2.9375 -15.921875 C 3.695312 -16.734375 4.726562 -17.140625 6.03125 -17.140625 C 6.632812 -17.140625 7.320312 -17.054688 8.09375 -16.890625 L 9.03125 -16.890625 L 9.03125 -13.9375 L 8.8125 -13.9375 C 8.8125 -14.695312 8.550781 -15.300781 8.03125 -15.75 C 7.507812 -16.195312 6.835938 -16.421875 6.015625 -16.421875 C 5.203125 -16.421875 4.519531 -16.144531 3.96875 -15.59375 C 3.414062 -15.050781 3.140625 -14.375 3.140625 -13.5625 C 3.140625 -12.75 3.460938 -12.046875 4.109375 -11.453125 L 8.828125 -7.078125 C 9.628906 -6.335938 10.03125 -5.328125 10.03125 -4.046875 C 10.03125 -2.773438 9.617188 -1.722656 8.796875 -0.890625 C 7.984375 -0.0664062 6.898438 0.34375 5.546875 0.34375 C 4.835938 0.34375 4.085938 0.234375 3.296875 0.015625 C 2.503906 -0.203125 1.894531 -0.535156 1.46875 -0.984375 Z M 1.46875 -0.984375 "/></g></g></g><g fill="#ffffff" fill-opacity="1"><g transform="translate(146.86492, 203.299981)"><g><path d="M 17.640625 -16.5625 L 17.25 -16.5625 C 16.914062 -16.5625 16.625 -16.453125 16.375 -16.234375 C 16.132812 -16.015625 16.003906 -15.75 15.984375 -15.4375 L 15.984375 -5.921875 C 15.984375 -4.054688 15.390625 -2.546875 14.203125 -1.390625 C 13.023438 -0.234375 11.453125 0.34375 9.484375 0.34375 C 7.515625 0.34375 5.914062 -0.226562 4.6875 -1.375 C 3.46875 -2.519531 2.859375 -4.03125 2.859375 -5.90625 L 2.859375 -15.359375 C 2.859375 -15.835938 2.648438 -16.191406 2.234375 -16.421875 C 2.035156 -16.515625 1.816406 -16.5625 1.578125 -16.5625 L 1.203125 -16.5625 L 1.203125 -16.796875 L 6.078125 -16.796875 L 6.078125 -16.5625 L 5.6875 -16.5625 C 5.332031 -16.5625 5.035156 -16.453125 4.796875 -16.234375 C 4.554688 -16.015625 4.429688 -15.738281 4.421875 -15.40625 L 4.421875 -6.234375 C 4.421875 -4.492188 4.882812 -3.085938 5.8125 -2.015625 C 6.75 -0.941406 8 -0.40625 9.5625 -0.40625 C 11.132812 -0.40625 12.410156 -0.910156 13.390625 -1.921875 C 14.367188 -2.941406 14.859375 -4.273438 14.859375 -5.921875 L 14.859375 -15.40625 C 14.835938 -15.738281 14.707031 -16.015625 14.46875 -16.234375 C 14.226562 -16.453125 13.929688 -16.5625 13.578125 -16.5625 L 13.203125 -16.5625 L 13.203125 -16.796875 L 17.640625 -16.796875 Z M 17.640625 -16.5625 "/></g></g></g><g fill="#ffffff" fill-opacity="1"><g transform="translate(165.704961, 203.299981)"><g><path d="M 18.671875 -16.5625 C 18.273438 -16.5625 17.929688 -16.421875 17.640625 -16.140625 C 17.347656 -15.859375 17.195312 -15.519531 17.1875 -15.125 L 17.1875 -2.734375 C 17.1875 -1.804688 17.242188 -0.925781 17.359375 -0.09375 L 17.40625 0.34375 L 17.1875 0.34375 L 4.109375 -13.625 L 4.109375 -1.6875 C 4.117188 -1.125 4.363281 -0.707031 4.84375 -0.4375 C 5.070312 -0.300781 5.3125 -0.234375 5.5625 -0.234375 L 6.03125 -0.234375 L 6.03125 0 L 1.078125 0 L 1.078125 -0.234375 L 1.53125 -0.234375 C 1.9375 -0.234375 2.28125 -0.375 2.5625 -0.65625 C 2.851562 -0.9375 3 -1.285156 3 -1.703125 L 3 -14.15625 C 3 -15.132812 2.941406 -16.007812 2.828125 -16.78125 L 2.78125 -17.15625 L 3.03125 -17.15625 L 16.109375 -3.1875 L 16.109375 -15.09375 C 16.085938 -15.507812 15.929688 -15.859375 15.640625 -16.140625 C 15.359375 -16.421875 15.015625 -16.5625 14.609375 -16.5625 L 14.15625 -16.5625 L 14.15625 -16.796875 L 19.109375 -16.796875 L 19.109375 -16.5625 Z M 18.671875 -16.5625 "/></g></g></g><g fill="#ffffff" fill-opacity="1"><g transform="translate(185.888996, 203.299981)"><g><path d="M 1.75 -0.234375 C 2.164062 -0.234375 2.519531 -0.378906 2.8125 -0.671875 C 3.113281 -0.972656 3.269531 -1.332031 3.28125 -1.75 L 3.28125 -15.078125 C 3.269531 -15.492188 3.113281 -15.84375 2.8125 -16.125 C 2.519531 -16.414062 2.164062 -16.5625 1.75 -16.5625 L 1.4375 -16.5625 L 1.4375 -16.796875 L 6.703125 -16.796875 L 6.703125 -16.5625 L 6.390625 -16.5625 C 5.972656 -16.5625 5.613281 -16.414062 5.3125 -16.125 C 5.019531 -15.84375 4.863281 -15.492188 4.84375 -15.078125 L 4.84375 -1.75 C 4.84375 -1.332031 4.992188 -0.972656 5.296875 -0.671875 C 5.609375 -0.378906 5.972656 -0.234375 6.390625 -0.234375 L 6.703125 -0.234375 L 6.703125 0 L 1.4375 0 L 1.4375 -0.234375 Z M 1.75 -0.234375 "/></g></g></g><g fill="#ffffff" fill-opacity="1"><g transform="translate(194.001014, 203.299981)"><g><path d="M 18.03125 -16.5625 L 17.8125 -16.5625 C 17.269531 -16.5625 16.773438 -16.34375 16.328125 -15.90625 C 16.066406 -15.6875 15.867188 -15.410156 15.734375 -15.078125 L 9.9375 -2.140625 C 9.351562 -0.835938 9.0625 -0.0078125 9.0625 0.34375 L 8.84375 0.34375 L 2.09375 -15.046875 C 1.875 -15.554688 1.566406 -15.9375 1.171875 -16.1875 C 0.773438 -16.4375 0.378906 -16.5625 -0.015625 -16.5625 L -0.203125 -16.5625 L -0.203125 -16.796875 L 5.1875 -16.796875 L 5.1875 -16.5625 L 4.96875 -16.5625 C 4.488281 -16.5625 4.171875 -16.335938 4.015625 -15.890625 C 3.984375 -15.796875 3.96875 -15.679688 3.96875 -15.546875 C 3.96875 -15.421875 4.007812 -15.265625 4.09375 -15.078125 L 9.109375 -2.5 L 14.328125 -15.078125 C 14.398438 -15.265625 14.4375 -15.445312 14.4375 -15.625 C 14.4375 -15.8125 14.347656 -16.015625 14.171875 -16.234375 C 14.003906 -16.453125 13.753906 -16.5625 13.421875 -16.5625 L 13.203125 -16.5625 L 13.203125 -16.796875 L 18.03125 -16.796875 Z M 18.03125 -16.5625 "/></g></g></g><g fill="#ffffff" fill-opacity="1"><g transform="translate(211.761053, 203.299981)"><g><path d="M 1.75 -0.234375 C 2.164062 -0.234375 2.519531 -0.378906 2.8125 -0.671875 C 3.113281 -0.972656 3.269531 -1.332031 3.28125 -1.75 L 3.28125 -15.1875 C 3.238281 -15.570312 3.070312 -15.894531 2.78125 -16.15625 C 2.5 -16.425781 2.15625 -16.5625 1.75 -16.5625 L 1.46875 -16.5625 L 1.4375 -16.796875 L 8.46875 -16.796875 C 8.96875 -16.796875 9.507812 -16.84375 10.09375 -16.9375 C 10.675781 -17.039062 11.085938 -17.140625 11.328125 -17.234375 L 11.328125 -14.203125 L 11.09375 -14.203125 L 11.09375 -14.640625 C 11.09375 -15.023438 10.957031 -15.351562 10.6875 -15.625 C 10.425781 -15.894531 10.113281 -16.039062 9.75 -16.0625 L 4.84375 -16.0625 L 4.84375 -8.640625 L 8.90625 -8.640625 C 9.226562 -8.648438 9.5 -8.769531 9.71875 -9 C 9.945312 -9.226562 10.0625 -9.507812 10.0625 -9.84375 L 10.0625 -10.171875 L 10.296875 -10.171875 L 10.296875 -6.390625 L 10.0625 -6.390625 L 10.0625 -6.75 C 10.0625 -7.0625 9.953125 -7.328125 9.734375 -7.546875 C 9.515625 -7.773438 9.242188 -7.898438 8.921875 -7.921875 L 4.84375 -7.921875 L 4.84375 -0.75 L 8.28125 -0.75 C 9.46875 -0.75 10.367188 -1.007812 10.984375 -1.53125 C 11.609375 -2.0625 12.128906 -2.847656 12.546875 -3.890625 L 12.796875 -3.890625 L 11.40625 0 L 1.4375 0 L 1.4375 -0.234375 Z M 1.75 -0.234375 "/></g></g></g><g fill="#ffffff" fill-opacity="1"><g transform="translate(225.609079, 203.299981)"><g><path d="M 6.390625 -16.0625 L 4.84375 -16.0625 L 4.84375 -1.75 C 4.84375 -1.332031 4.988281 -0.972656 5.28125 -0.671875 C 5.582031 -0.378906 5.953125 -0.234375 6.390625 -0.234375 L 6.671875 -0.234375 L 6.703125 0 L 1.4375 0 L 1.4375 -0.234375 L 1.75 -0.234375 C 2.164062 -0.234375 2.519531 -0.378906 2.8125 -0.671875 C 3.113281 -0.960938 3.269531 -1.316406 3.28125 -1.734375 L 3.28125 -15.046875 C 3.269531 -15.460938 3.113281 -15.816406 2.8125 -16.109375 C 2.519531 -16.410156 2.164062 -16.5625 1.75 -16.5625 L 1.4375 -16.5625 L 1.4375 -16.796875 L 7.921875 -16.796875 C 9.378906 -16.796875 10.519531 -16.390625 11.34375 -15.578125 C 12.175781 -14.773438 12.59375 -13.726562 12.59375 -12.4375 C 12.59375 -11.15625 12.195312 -10.046875 11.40625 -9.109375 C 10.613281 -8.171875 9.648438 -7.703125 8.515625 -7.703125 C 8.753906 -7.585938 9.035156 -7.363281 9.359375 -7.03125 C 9.691406 -6.707031 9.988281 -6.375 10.25 -6.03125 C 11.625 -4.0625 12.519531 -2.847656 12.9375 -2.390625 C 13.351562 -1.929688 13.648438 -1.617188 13.828125 -1.453125 C 14.003906 -1.285156 14.195312 -1.117188 14.40625 -0.953125 C 14.613281 -0.796875 14.820312 -0.671875 15.03125 -0.578125 C 15.488281 -0.347656 15.984375 -0.234375 16.515625 -0.234375 L 16.515625 0 L 15.1875 0 C 14.5 0 13.859375 -0.125 13.265625 -0.375 C 12.679688 -0.625 12.238281 -0.878906 11.9375 -1.140625 C 11.644531 -1.398438 11.390625 -1.65625 11.171875 -1.90625 C 10.953125 -2.15625 10.351562 -2.984375 9.375 -4.390625 C 8.40625 -5.796875 7.835938 -6.597656 7.671875 -6.796875 C 7.515625 -7.003906 7.347656 -7.203125 7.171875 -7.390625 C 6.660156 -7.929688 6.148438 -8.203125 5.640625 -8.203125 L 5.640625 -8.453125 C 5.765625 -8.429688 5.929688 -8.421875 6.140625 -8.421875 C 6.347656 -8.421875 6.601562 -8.429688 6.90625 -8.453125 C 8.894531 -8.492188 10.144531 -9.320312 10.65625 -10.9375 C 10.75 -11.257812 10.796875 -11.5625 10.796875 -11.84375 C 10.796875 -12.125 10.796875 -12.304688 10.796875 -12.390625 C 10.765625 -13.453125 10.484375 -14.3125 9.953125 -14.96875 C 9.429688 -15.625 8.722656 -15.976562 7.828125 -16.03125 C 7.441406 -16.050781 6.960938 -16.0625 6.390625 -16.0625 Z M 6.390625 -16.0625 "/></g></g></g><g fill="#ffffff" fill-opacity="1"><g transform="translate(241.857113, 203.299981)"><g><path d="M 1.46875 -0.984375 C 1.414062 -1.203125 1.390625 -1.628906 1.390625 -2.265625 C 1.390625 -2.910156 1.507812 -3.59375 1.75 -4.3125 L 1.96875 -4.3125 C 1.945312 -4.144531 1.9375 -3.972656 1.9375 -3.796875 C 1.9375 -2.816406 2.234375 -2.003906 2.828125 -1.359375 C 3.421875 -0.710938 4.207031 -0.390625 5.1875 -0.390625 C 6.195312 -0.390625 7.023438 -0.691406 7.671875 -1.296875 C 8.316406 -1.898438 8.640625 -2.660156 8.640625 -3.578125 C 8.640625 -4.503906 8.328125 -5.253906 7.703125 -5.828125 L 3.09375 -10.109375 C 2.226562 -10.898438 1.796875 -11.863281 1.796875 -13 C 1.796875 -14.144531 2.175781 -15.117188 2.9375 -15.921875 C 3.695312 -16.734375 4.726562 -17.140625 6.03125 -17.140625 C 6.632812 -17.140625 7.320312 -17.054688 8.09375 -16.890625 L 9.03125 -16.890625 L 9.03125 -13.9375 L 8.8125 -13.9375 C 8.8125 -14.695312 8.550781 -15.300781 8.03125 -15.75 C 7.507812 -16.195312 6.835938 -16.421875 6.015625 -16.421875 C 5.203125 -16.421875 4.519531 -16.144531 3.96875 -15.59375 C 3.414062 -15.050781 3.140625 -14.375 3.140625 -13.5625 C 3.140625 -12.75 3.460938 -12.046875 4.109375 -11.453125 L 8.828125 -7.078125 C 9.628906 -6.335938 10.03125 -5.328125 10.03125 -4.046875 C 10.03125 -2.773438 9.617188 -1.722656 8.796875 -0.890625 C 7.984375 -0.0664062 6.898438 0.34375 5.546875 0.34375 C 4.835938 0.34375 4.085938 0.234375 3.296875 0.015625 C 2.503906 -0.203125 1.894531 -0.535156 1.46875 -0.984375 Z M 1.46875 -0.984375 "/></g></g></g><g fill="#ffffff" fill-opacity="1"><g transform="translate(253.257133, 203.299981)"><g><path d="M 1.75 -0.234375 C 2.164062 -0.234375 2.519531 -0.378906 2.8125 -0.671875 C 3.113281 -0.972656 3.269531 -1.332031 3.28125 -1.75 L 3.28125 -15.078125 C 3.269531 -15.492188 3.113281 -15.84375 2.8125 -16.125 C 2.519531 -16.414062 2.164062 -16.5625 1.75 -16.5625 L 1.4375 -16.5625 L 1.4375 -16.796875 L 6.703125 -16.796875 L 6.703125 -16.5625 L 6.390625 -16.5625 C 5.972656 -16.5625 5.613281 -16.414062 5.3125 -16.125 C 5.019531 -15.84375 4.863281 -15.492188 4.84375 -15.078125 L 4.84375 -1.75 C 4.84375 -1.332031 4.992188 -0.972656 5.296875 -0.671875 C 5.609375 -0.378906 5.972656 -0.234375 6.390625 -0.234375 L 6.703125 -0.234375 L 6.703125 0 L 1.4375 0 L 1.4375 -0.234375 Z M 1.75 -0.234375 "/></g></g></g><g fill="#ffffff" fill-opacity="1"><g transform="translate(261.369151, 203.299981)"><g><path d="M 14.140625 -14.65625 C 14.140625 -15.039062 14 -15.375 13.71875 -15.65625 C 13.445312 -15.9375 13.128906 -16.085938 12.765625 -16.109375 L 8.203125 -16.109375 L 8.203125 -1.734375 C 8.222656 -1.316406 8.378906 -0.960938 8.671875 -0.671875 C 8.972656 -0.378906 9.332031 -0.234375 9.75 -0.234375 L 10.0625 -0.234375 L 10.0625 0 L 4.796875 0 L 4.796875 -0.234375 L 5.109375 -0.234375 C 5.523438 -0.234375 5.878906 -0.378906 6.171875 -0.671875 C 6.472656 -0.960938 6.628906 -1.304688 6.640625 -1.703125 L 6.640625 -16.109375 L 2.09375 -16.109375 C 1.707031 -16.085938 1.378906 -15.9375 1.109375 -15.65625 C 0.847656 -15.375 0.71875 -15.039062 0.71875 -14.65625 L 0.71875 -14.25 L 0.484375 -14.234375 L 0.484375 -17.25 C 0.722656 -17.15625 1.132812 -17.0625 1.71875 -16.96875 C 2.3125 -16.875 2.859375 -16.828125 3.359375 -16.828125 L 11.46875 -16.828125 C 12.25 -16.828125 12.898438 -16.882812 13.421875 -17 C 13.941406 -17.125 14.257812 -17.207031 14.375 -17.25 L 14.375 -14.234375 L 14.140625 -14.25 Z M 14.140625 -14.65625 "/></g></g></g><g fill="#ffffff" fill-opacity="1"><g transform="translate(276.201185, 203.299981)"><g><path d="M 16.15625 -16.5625 L 15.828125 -16.5625 C 15.347656 -16.5625 14.894531 -16.425781 14.46875 -16.15625 C 14.039062 -15.894531 13.6875 -15.566406 13.40625 -15.171875 L 8.671875 -7.484375 L 8.671875 -1.75 C 8.671875 -1.332031 8.816406 -0.972656 9.109375 -0.671875 C 9.410156 -0.378906 9.773438 -0.234375 10.203125 -0.234375 L 10.5 -0.234375 L 10.5 0 L 5.265625 0 L 5.265625 -0.234375 L 5.578125 -0.234375 C 5.992188 -0.234375 6.347656 -0.378906 6.640625 -0.671875 C 6.941406 -0.960938 7.097656 -1.316406 7.109375 -1.734375 L 7.109375 -7.515625 L 2.53125 -15.171875 C 2.289062 -15.554688 1.945312 -15.882812 1.5 -16.15625 C 1.0625 -16.425781 0.601562 -16.5625 0.125 -16.5625 L -0.203125 -16.5625 L -0.203125 -16.796875 L 5.6875 -16.796875 L 5.6875 -16.5625 L 5.390625 -16.5625 C 5.035156 -16.5625 4.757812 -16.398438 4.5625 -16.078125 C 4.46875 -15.898438 4.421875 -15.726562 4.421875 -15.5625 C 4.421875 -15.394531 4.460938 -15.234375 4.546875 -15.078125 L 8.140625 -8.359375 L 11.984375 -15.09375 C 12.066406 -15.257812 12.109375 -15.421875 12.109375 -15.578125 C 12.109375 -15.734375 12.050781 -15.898438 11.9375 -16.078125 C 11.738281 -16.398438 11.46875 -16.5625 11.125 -16.5625 L 10.828125 -16.5625 L 10.828125 -16.796875 L 16.15625 -16.796875 Z M 16.15625 -16.5625 "/></g></g></g><g clip-path="url(#d81774a71d)"><path fill="#b4914c" d="M 92.324219 202.984375 C 91.242188 202.714844 90.210938 202.34375 89.230469 201.898438 C 89.21875 201.875 89.203125 201.847656 89.179688 201.824219 L 89.167969 201.808594 C 89.117188 200.050781 87.753906 198.21875 86.515625 197.070312 C 86.351562 196.917969 85.996094 197.007812 86.019531 197.273438 C 86.199219 198.703125 86.773438 200.089844 87.738281 201.148438 C 86.085938 200.21875 84.59375 199.046875 83.230469 197.683594 C 83.257812 197.644531 83.269531 197.59375 83.269531 197.542969 C 83.28125 196.355469 83.117188 195.210938 82.710938 194.089844 C 82.417969 193.285156 82.035156 192.230469 81.246094 191.808594 C 81.066406 191.71875 80.851562 191.835938 80.851562 192.039062 C 80.824219 193.425781 81.117188 194.816406 81.753906 196.039062 C 81.527344 195.769531 81.308594 195.492188 81.09375 195.210938 C 79.71875 193.402344 78.480469 191.425781 77.476562 189.363281 C 77.488281 189.335938 77.5 189.300781 77.488281 189.261719 C 77.476562 189.222656 77.476562 189.183594 77.464844 189.144531 C 77.5 189.132812 77.550781 189.109375 77.578125 189.058594 C 78.851562 187.171875 78.648438 184.367188 78.074219 182.277344 C 78.011719 182.035156 77.691406 182.023438 77.566406 182.214844 C 76.394531 183.921875 76.378906 185.882812 76.761719 187.796875 C 76.085938 186.203125 75.566406 184.546875 75.234375 182.851562 C 75.09375 182.140625 74.992188 181.425781 74.941406 180.722656 C 74.980469 180.722656 75.03125 180.710938 75.070312 180.6875 C 76.941406 179.550781 77.984375 177.03125 78.277344 174.953125 C 78.316406 174.683594 78.023438 174.457031 77.792969 174.671875 C 76.496094 175.921875 75.476562 177.410156 74.878906 179.09375 C 74.917969 176.429688 75.539062 173.871094 76.585938 171.4375 C 76.621094 171.476562 76.6875 171.5 76.75 171.5 C 78.941406 171.398438 81.015625 169.472656 82.125 167.714844 C 82.25 167.511719 82.035156 167.21875 81.804688 167.296875 C 80.214844 167.832031 78.75 168.59375 77.449219 169.640625 C 78.648438 167.347656 80.175781 165.195312 81.882812 163.21875 L 81.894531 163.21875 C 82.976562 162.683594 84.238281 162.238281 85.117188 161.382812 C 85.867188 160.644531 86.277344 159.640625 86.671875 158.683594 C 86.796875 158.378906 86.414062 158.210938 86.1875 158.351562 C 86.160156 158.339844 86.148438 158.339844 86.109375 158.339844 C 85.128906 158.453125 84.261719 158.835938 83.550781 159.523438 C 82.773438 160.289062 82.402344 161.320312 81.832031 162.226562 C 80.519531 163.640625 79.324219 165.207031 78.277344 166.875 C 78.582031 164.519531 78.980469 161.996094 78.367188 159.675781 C 78.289062 159.398438 77.945312 159.398438 77.808594 159.601562 C 76.101562 161.996094 75.910156 165.410156 77.707031 167.816406 C 76.570312 169.78125 75.679688 171.882812 75.105469 174.023438 C 75.054688 173.105469 74.980469 172.199219 74.878906 171.296875 C 74.8125 170.699219 74.941406 169.5 74.417969 169.078125 C 74.316406 168.992188 74.175781 168.964844 74.0625 169.027344 C 72.089844 170.226562 72.941406 174.789062 74.648438 175.859375 C 74.660156 175.871094 74.675781 175.871094 74.699219 175.871094 C 74.40625 177.527344 74.304688 179.195312 74.445312 180.878906 L 74.445312 180.890625 C 74.445312 180.914062 74.445312 180.941406 74.457031 180.964844 C 74.507812 181.566406 74.585938 182.152344 74.699219 182.75 C 74.777344 183.171875 74.878906 183.578125 74.980469 183.984375 C 74.519531 183.210938 73.949219 182.433594 73.414062 181.757812 C 72.789062 180.964844 72.050781 180.34375 71.058594 180.074219 C 70.828125 180.011719 70.648438 180.214844 70.6875 180.445312 C 71.171875 182.738281 72.902344 184.738281 75.195312 185.363281 C 75.261719 185.375 75.3125 185.363281 75.347656 185.335938 C 76.050781 187.617188 77.066406 189.835938 78.289062 191.898438 C 77.792969 191.492188 77.273438 191.121094 76.710938 190.816406 C 75.960938 190.394531 74.902344 189.746094 74.023438 190.023438 C 73.871094 190.078125 73.757812 190.242188 73.808594 190.394531 C 74.558594 192.714844 76.929688 194.203125 79.324219 193.554688 L 79.335938 193.554688 C 79.855469 194.34375 80.417969 195.109375 80.992188 195.835938 C 81.894531 196.996094 82.914062 198.117188 84.035156 199.121094 C 82.632812 198.410156 80.875 198.242188 79.410156 198.394531 C 79.167969 198.421875 79.015625 198.703125 79.207031 198.894531 C 80.800781 200.472656 83.21875 201.109375 85.347656 200.28125 C 85.371094 200.269531 85.382812 200.257812 85.398438 200.242188 C 87.421875 201.773438 89.726562 202.894531 92.273438 203.25 C 92.425781 203.300781 92.515625 203.035156 92.324219 202.984375 Z M 83.867188 160.085938 C 83.832031 160.160156 83.804688 160.226562 83.765625 160.300781 C 83.675781 160.378906 83.589844 160.453125 83.5 160.542969 C 83.613281 160.378906 83.742188 160.226562 83.867188 160.085938 Z M 83.867188 160.085938 " fill-opacity="1" fill-rule="nonzero"/></g><g clip-path="url(#f775e2431a)"><path fill="#b4914c" d="M 112.765625 203.277344 C 115.3125 202.917969 117.617188 201.796875 119.640625 200.269531 C 119.652344 200.28125 119.679688 200.292969 119.691406 200.308594 C 121.820312 201.136719 124.238281 200.5 125.828125 198.917969 C 126.019531 198.726562 125.867188 198.445312 125.625 198.421875 C 124.175781 198.28125 122.402344 198.445312 121.003906 199.148438 C 122.125 198.140625 123.144531 197.03125 124.046875 195.859375 C 124.621094 195.121094 125.167969 194.355469 125.703125 193.578125 L 125.714844 193.578125 C 128.109375 194.21875 130.476562 192.738281 131.230469 190.421875 C 131.28125 190.253906 131.164062 190.101562 131.011719 190.050781 C 130.132812 189.757812 129.078125 190.40625 128.324219 190.839844 C 127.765625 191.160156 127.242188 191.515625 126.746094 191.921875 C 127.96875 189.847656 128.988281 187.644531 129.6875 185.363281 C 129.726562 185.386719 129.777344 185.402344 129.839844 185.386719 C 132.132812 184.761719 133.867188 182.761719 134.347656 180.46875 C 134.398438 180.253906 134.210938 180.050781 133.980469 180.101562 C 132.988281 180.355469 132.261719 180.980469 131.625 181.78125 C 131.089844 182.457031 130.515625 183.234375 130.058594 184.011719 C 130.160156 183.605469 130.25 183.183594 130.339844 182.777344 C 130.453125 182.175781 130.527344 181.589844 130.578125 180.992188 C 130.59375 180.964844 130.59375 180.941406 130.59375 180.914062 L 130.59375 180.902344 C 130.734375 179.234375 130.632812 177.550781 130.339844 175.894531 C 130.351562 175.894531 130.363281 175.882812 130.390625 175.882812 C 132.09375 174.8125 132.949219 170.25 130.976562 169.054688 C 130.859375 168.976562 130.71875 169.015625 130.617188 169.105469 C 130.097656 169.539062 130.222656 170.722656 130.160156 171.320312 C 130.058594 172.226562 129.980469 173.144531 129.929688 174.046875 C 129.355469 171.894531 128.453125 169.804688 127.332031 167.84375 C 129.128906 165.4375 128.9375 162.019531 127.230469 159.613281 C 127.089844 159.410156 126.734375 159.410156 126.671875 159.691406 C 126.058594 162.007812 126.453125 164.53125 126.757812 166.886719 C 125.714844 165.21875 124.519531 163.652344 123.195312 162.226562 C 122.632812 161.320312 122.265625 160.289062 121.472656 159.523438 C 120.761719 158.835938 119.894531 158.453125 118.914062 158.339844 C 118.890625 158.339844 118.863281 158.339844 118.839844 158.351562 C 118.609375 158.210938 118.238281 158.378906 118.355469 158.683594 C 118.75 159.640625 119.15625 160.644531 119.90625 161.382812 C 120.785156 162.238281 122.046875 162.683594 123.128906 163.21875 L 123.144531 163.21875 C 124.847656 165.195312 126.378906 167.347656 127.574219 169.640625 C 126.277344 168.59375 124.8125 167.832031 123.21875 167.296875 C 122.976562 167.21875 122.773438 167.511719 122.902344 167.714844 C 123.996094 169.460938 126.085938 171.398438 128.273438 171.5 C 128.339844 171.5 128.390625 171.476562 128.441406 171.4375 C 129.472656 173.871094 130.109375 176.429688 130.148438 179.09375 C 129.546875 177.410156 128.53125 175.921875 127.230469 174.671875 C 127 174.457031 126.707031 174.683594 126.746094 174.953125 C 127.039062 177.03125 128.082031 179.550781 129.957031 180.6875 C 130.007812 180.710938 130.046875 180.722656 130.082031 180.722656 C 130.03125 181.425781 129.929688 182.140625 129.789062 182.851562 C 129.445312 184.535156 128.925781 186.191406 128.261719 187.796875 C 128.644531 185.871094 128.632812 183.921875 127.460938 182.214844 C 127.332031 182.023438 127.015625 182.035156 126.949219 182.277344 C 126.378906 184.367188 126.171875 187.183594 127.445312 189.058594 C 127.484375 189.109375 127.523438 189.132812 127.5625 189.144531 C 127.550781 189.183594 127.550781 189.222656 127.535156 189.261719 C 127.523438 189.300781 127.535156 189.335938 127.550781 189.363281 C 126.542969 191.441406 125.296875 193.402344 123.933594 195.210938 C 123.714844 195.492188 123.5 195.769531 123.269531 196.039062 C 123.894531 194.816406 124.1875 193.425781 124.175781 192.039062 C 124.175781 191.835938 123.957031 191.71875 123.78125 191.808594 C 123.003906 192.230469 122.621094 193.285156 122.316406 194.089844 C 121.90625 195.199219 121.742188 196.355469 121.753906 197.542969 C 121.753906 197.59375 121.765625 197.644531 121.792969 197.683594 C 120.441406 199.046875 118.941406 200.21875 117.285156 201.148438 C 118.253906 200.089844 118.839844 198.703125 119.003906 197.273438 C 119.042969 197.007812 118.671875 196.917969 118.507812 197.070312 C 117.273438 198.21875 115.910156 200.050781 115.859375 201.808594 L 115.847656 201.824219 C 115.820312 201.847656 115.808594 201.875 115.792969 201.898438 C 114.8125 202.34375 113.78125 202.703125 112.699219 202.984375 C 112.484375 203.035156 112.574219 203.300781 112.765625 203.277344 Z M 121.5 160.53125 C 121.410156 160.453125 121.320312 160.378906 121.234375 160.289062 C 121.195312 160.210938 121.167969 160.148438 121.128906 160.085938 C 121.257812 160.226562 121.386719 160.378906 121.5 160.53125 Z M 121.5 160.53125 " fill-opacity="1" fill-rule="nonzero"/></g><g fill="#b4914c" fill-opacity="1"><g transform="translate(86.212543, 187.867298)"><g><path d="M 11.328125 -16.53125 L 11.328125 -14.515625 L 11.09375 -14.515625 L 11.09375 -14.875 C 11.09375 -15.195312 10.976562 -15.472656 10.75 -15.703125 C 10.53125 -15.941406 10.25 -16.0625 9.90625 -16.0625 L 4.84375 -16.0625 L 4.84375 -8.640625 L 8.90625 -8.640625 C 9.226562 -8.648438 9.5 -8.769531 9.71875 -9 C 9.945312 -9.226562 10.0625 -9.5 10.0625 -9.8125 L 10.0625 -10.171875 L 10.296875 -10.171875 L 10.296875 -6.390625 L 10.0625 -6.390625 L 10.0625 -6.75 C 10.0625 -7.0625 9.953125 -7.328125 9.734375 -7.546875 C 9.515625 -7.773438 9.242188 -7.898438 8.921875 -7.921875 L 4.84375 -7.921875 L 4.84375 -1.75 C 4.84375 -1.332031 4.992188 -0.972656 5.296875 -0.671875 C 5.609375 -0.378906 5.972656 -0.234375 6.390625 -0.234375 L 6.703125 -0.234375 L 6.703125 0 L 1.4375 0 L 1.4375 -0.234375 L 1.75 -0.234375 C 2.164062 -0.234375 2.519531 -0.378906 2.8125 -0.671875 C 3.113281 -0.972656 3.269531 -1.332031 3.28125 -1.75 L 3.28125 -15.1875 C 3.28125 -15.570312 3.125 -15.894531 2.8125 -16.15625 C 2.507812 -16.425781 2.15625 -16.5625 1.75 -16.5625 L 1.46875 -16.5625 L 1.4375 -16.796875 L 8.46875 -16.796875 C 8.96875 -16.796875 9.507812 -16.84375 10.09375 -16.9375 C 10.675781 -17.039062 11.085938 -17.140625 11.328125 -17.234375 Z M 11.328125 -16.53125 "/></g></g></g><g fill="#b4914c" fill-opacity="1"><g transform="translate(99.196574, 187.867298)"><g><path d="M 13.125 -0.234375 C 13.539062 -0.234375 13.894531 -0.378906 14.1875 -0.671875 C 14.488281 -0.960938 14.644531 -1.316406 14.65625 -1.734375 L 14.65625 -7.9375 L 4.84375 -7.9375 L 4.84375 -1.75 C 4.84375 -1.332031 4.992188 -0.972656 5.296875 -0.671875 C 5.609375 -0.378906 5.972656 -0.234375 6.390625 -0.234375 L 6.703125 -0.234375 L 6.703125 0 L 1.4375 0 L 1.4375 -0.234375 L 1.75 -0.234375 C 2.164062 -0.234375 2.519531 -0.378906 2.8125 -0.671875 C 3.113281 -0.972656 3.269531 -1.332031 3.28125 -1.75 L 3.28125 -15.078125 C 3.269531 -15.492188 3.113281 -15.84375 2.8125 -16.125 C 2.519531 -16.414062 2.164062 -16.5625 1.75 -16.5625 L 1.4375 -16.5625 L 1.4375 -16.796875 L 6.703125 -16.796875 L 6.703125 -16.5625 L 6.390625 -16.5625 C 5.972656 -16.5625 5.613281 -16.414062 5.3125 -16.125 C 5.019531 -15.84375 4.863281 -15.492188 4.84375 -15.078125 L 4.84375 -8.65625 L 14.65625 -8.65625 L 14.65625 -15.078125 C 14.644531 -15.648438 14.390625 -16.082031 13.890625 -16.375 C 13.648438 -16.5 13.394531 -16.5625 13.125 -16.5625 L 12.8125 -16.5625 L 12.8125 -16.796875 L 18.078125 -16.796875 L 18.078125 -16.5625 L 17.765625 -16.5625 C 17.347656 -16.5625 16.988281 -16.410156 16.6875 -16.109375 C 16.394531 -15.816406 16.238281 -15.460938 16.21875 -15.046875 L 16.21875 -1.75 C 16.238281 -1.332031 16.394531 -0.972656 16.6875 -0.671875 C 16.988281 -0.378906 17.347656 -0.234375 17.765625 -0.234375 L 18.078125 -0.234375 L 18.078125 0 L 12.8125 0 L 12.8125 -0.234375 Z M 13.125 -0.234375 "/></g></g></g></svg>